<svg id="visual" viewBox="0 0 540 960" width="540" height="960" xmlns="http://www.w3.org/2000/svg" xmlns:xlink="http://www.w3.org/1999/xlink" version="1.1"><rect x="0" y="0" width="540" height="960" fill="#CCCCCC"></rect><path d="M0 612L12.8 612.3C25.7 612.7 51.3 613.3 77 606C102.7 598.7 128.3 583.3 154 577.5C179.7 571.7 205.3 575.3 231.2 600.2C257 625 283 671 308.8 695.3C334.7 719.7 360.3 722.3 386 701.7C411.7 681 437.3 637 463 624.5C488.7 612 514.3 631 527.2 640.5L540 650L540 961L527.2 961C514.3 961 488.7 961 463 961C437.3 961 411.7 961 386 961C360.3 961 334.7 961 308.8 961C283 961 257 961 231.2 961C205.3 961 179.7 961 154 961C128.3 961 102.7 961 77 961C51.3 961 25.7 961 12.8 961L0 961Z" fill="#fa7268"></path><path d="M0 698L12.8 710.5C25.7 723 51.3 748 77 748.5C102.7 749 128.3 725 154 721.2C179.7 717.3 205.3 733.7 231.2 739.3C257 745 283 740 308.8 734.5C334.7 729 360.3 723 386 715.8C411.7 708.7 437.3 700.3 463 689.2C488.7 678 514.3 664 527.2 657L540 650L540 961L527.2 961C514.3 961 488.7 961 463 961C437.3 961 411.7 961 386 961C360.3 961 334.7 961 308.8 961C283 961 257 961 231.2 961C205.3 961 179.7 961 154 961C128.3 961 102.7 961 77 961C51.3 961 25.7 961 12.8 961L0 961Z" fill="#eb5967"></path><path d="M0 816L12.8 808.3C25.7 800.7 51.3 785.3 77 790C102.7 794.7 128.3 819.3 154 813.3C179.7 807.3 205.3 770.7 231.2 757.3C257 744 283 754 308.8 767.2C334.7 780.3 360.3 796.7 386 803.8C411.7 811 437.3 809 463 810.2C488.7 811.3 514.3 815.7 527.2 817.8L540 820L540 961L527.2 961C514.3 961 488.7 961 463 961C437.3 961 411.7 961 386 961C360.3 961 334.7 961 308.8 961C283 961 257 961 231.2 961C205.3 961 179.7 961 154 961C128.3 961 102.7 961 77 961C51.3 961 25.7 961 12.8 961L0 961Z" fill="#da3f67"></path><path d="M0 897L12.8 888.7C25.7 880.3 51.3 863.7 77 850.3C102.7 837 128.3 827 154 823.7C179.7 820.3 205.3 823.7 231.2 824.2C257 824.7 283 822.3 308.8 826.5C334.7 830.7 360.3 841.3 386 850.2C411.7 859 437.3 866 463 871.5C488.7 877 514.3 881 527.2 883L540 885L540 961L527.2 961C514.3 961 488.7 961 463 961C437.3 961 411.7 961 386 961C360.3 961 334.7 961 308.8 961C283 961 257 961 231.2 961C205.3 961 179.7 961 154 961C128.3 961 102.7 961 77 961C51.3 961 25.7 961 12.8 961L0 961Z" fill="#c62368"></path></svg>