<svg id="visual" viewBox="0 0 1920 1080" width="1920" height="1080" xmlns="http://www.w3.org/2000/svg" xmlns:xlink="http://www.w3.org/1999/xlink" version="1.1"><rect x="0" y="0" width="1920" height="1080" fill="#CCCCCC"></rect><path d="M571 0L577 25.7C583 51.3 595 102.7 620.2 154.2C645.3 205.7 683.7 257.3 693.5 308.8C703.3 360.3 684.7 411.7 675.5 463C666.3 514.3 666.7 565.7 644.2 617C621.7 668.3 576.3 719.7 561.8 771.2C547.3 822.7 563.7 874.3 590.5 925.8C617.3 977.3 654.7 1028.7 673.3 1054.3L692 1080L0 1080L0 1054.3C0 1028.7 0 977.3 0 925.8C0 874.3 0 822.7 0 771.2C0 719.7 0 668.3 0 617C0 565.7 0 514.3 0 463C0 411.7 0 360.3 0 308.8C0 257.3 0 205.7 0 154.2C0 102.7 0 51.3 0 25.7L0 0Z" fill="#fa7268"></path><path d="M540 0L544.3 25.7C548.7 51.3 557.3 102.7 564 154.2C570.7 205.7 575.3 257.3 547.3 308.8C519.3 360.3 458.7 411.7 447.7 463C436.7 514.3 475.3 565.7 516.2 617C557 668.3 600 719.7 583.8 771.2C567.7 822.7 492.3 874.3 463 925.8C433.7 977.3 450.3 1028.7 458.7 1054.3L467 1080L0 1080L0 1054.3C0 1028.7 0 977.3 0 925.8C0 874.3 0 822.7 0 771.2C0 719.7 0 668.3 0 617C0 565.7 0 514.3 0 463C0 411.7 0 360.3 0 308.8C0 257.3 0 205.7 0 154.2C0 102.7 0 51.3 0 25.7L0 0Z" fill="#ef5f67"></path><path d="M306 0L314.8 25.7C323.7 51.3 341.3 102.7 355.3 154.2C369.3 205.7 379.7 257.3 391.2 308.8C402.7 360.3 415.3 411.7 403.3 463C391.3 514.3 354.7 565.7 351.7 617C348.7 668.3 379.3 719.7 390.7 771.2C402 822.7 394 874.3 394.2 925.8C394.3 977.3 402.7 1028.7 406.8 1054.3L411 1080L0 1080L0 1054.3C0 1028.7 0 977.3 0 925.8C0 874.3 0 822.7 0 771.2C0 719.7 0 668.3 0 617C0 565.7 0 514.3 0 463C0 411.7 0 360.3 0 308.8C0 257.3 0 205.7 0 154.2C0 102.7 0 51.3 0 25.7L0 0Z" fill="#e34c67"></path><path d="M260 0L274 25.7C288 51.3 316 102.7 332.3 154.2C348.7 205.7 353.3 257.3 327.8 308.8C302.3 360.3 246.7 411.7 232.8 463C219 514.3 247 565.7 276.2 617C305.3 668.3 335.7 719.7 337.8 771.2C340 822.7 314 874.3 287.5 925.8C261 977.3 234 1028.7 220.5 1054.3L207 1080L0 1080L0 1054.3C0 1028.7 0 977.3 0 925.8C0 874.3 0 822.7 0 771.2C0 719.7 0 668.3 0 617C0 565.7 0 514.3 0 463C0 411.7 0 360.3 0 308.8C0 257.3 0 205.7 0 154.2C0 102.7 0 51.3 0 25.7L0 0Z" fill="#d53867"></path><path d="M182 0L179.2 25.7C176.3 51.3 170.7 102.7 158.3 154.2C146 205.7 127 257.3 114.3 308.8C101.7 360.3 95.3 411.7 110.7 463C126 514.3 163 565.7 165.2 617C167.3 668.3 134.7 719.7 131 771.2C127.3 822.7 152.7 874.3 155.8 925.8C159 977.3 140 1028.7 130.5 1054.3L121 1080L0 1080L0 1054.3C0 1028.7 0 977.3 0 925.8C0 874.3 0 822.7 0 771.2C0 719.7 0 668.3 0 617C0 565.7 0 514.3 0 463C0 411.7 0 360.3 0 308.8C0 257.3 0 205.7 0 154.2C0 102.7 0 51.3 0 25.7L0 0Z" fill="#c62368"></path></svg>